# xmcd
#
# Track frame offsets: 
#        150
#        17748
#        34533
#        53061
#        74287
#        88432
#        98636
#        116680
#        132199
#        146785
#        163650
#        175983
#
# Disc length: 2686 seconds
#
# Revision: 1
# Processed by: cddbd v1.5.2PL0 Copyright (c) Steve Scherf et al.
# Submitted via: ExactAudioCopyFreeDBPlugin 1.0
#
DISCID=a50a7c0c
DTITLE=Chris Smither - Honeysuckle Dog
DYEAR=2004
DGENRE=Folk
TTITLE0=Sunshine Lady
TTITLE1=Tribute to Mississippi John Hurt
TTITLE2=Honeysuckle Dog
TTITLE3=Rattlesnake Preacher
TTITLE4=Rosalie
TTITLE5=Guilty
TTITLE6=It Ain't Easy
TTITLE7=Lonely Time
TTITLE8=Homunculus
TTITLE9=Braden River
TTITLE10=Steel Guitar
TTITLE11=Jailhouse Blues
EXTD=
EXTT0=
EXTT1=
EXTT2=
EXTT3=
EXTT4=
EXTT5=
EXTT6=
EXTT7=
EXTT8=
EXTT9=
EXTT10=
EXTT11=
PLAYORDER=
